<mxfile host="app.diagrams.net" modified="2024-02-07T04:21:57.044Z" agent="Mozilla/5.0 (Windows NT 10.0; Win64; x64) AppleWebKit/537.36 (KHTML, like Gecko) Chrome/121.0.0.0 Safari/537.36" etag="MgP6PSLhmPhenF9781qG" version="23.1.1" type="github">
  <diagram name="Halaman-1" id="qcv07URxWWt_zgONhXQC">
    <mxGraphModel dx="1434" dy="780" grid="1" gridSize="10" guides="1" tooltips="1" connect="1" arrows="1" fold="1" page="1" pageScale="1" pageWidth="827" pageHeight="1169" math="0" shadow="0">
      <root>
        <mxCell id="0" />
        <mxCell id="1" parent="0" />
        <mxCell id="LGczJItEcJPwWo0bh8cd-1" value="" style="swimlane;startSize=0;" vertex="1" parent="1">
          <mxGeometry x="290" y="120" width="240" height="410" as="geometry" />
        </mxCell>
        <mxCell id="LGczJItEcJPwWo0bh8cd-2" value="form pengunjung" style="ellipse;whiteSpace=wrap;html=1;" vertex="1" parent="LGczJItEcJPwWo0bh8cd-1">
          <mxGeometry x="30" y="40" width="180" height="70" as="geometry" />
        </mxCell>
        <mxCell id="LGczJItEcJPwWo0bh8cd-3" value="pencarian buku" style="ellipse;whiteSpace=wrap;html=1;" vertex="1" parent="LGczJItEcJPwWo0bh8cd-1">
          <mxGeometry x="30" y="140" width="180" height="70" as="geometry" />
        </mxCell>
        <mxCell id="LGczJItEcJPwWo0bh8cd-4" value="detail buku" style="ellipse;whiteSpace=wrap;html=1;" vertex="1" parent="LGczJItEcJPwWo0bh8cd-1">
          <mxGeometry x="34" y="240" width="180" height="70" as="geometry" />
        </mxCell>
        <mxCell id="LGczJItEcJPwWo0bh8cd-5" value="laporan setatistik" style="ellipse;whiteSpace=wrap;html=1;" vertex="1" parent="LGczJItEcJPwWo0bh8cd-1">
          <mxGeometry x="34" y="320" width="180" height="70" as="geometry" />
        </mxCell>
        <mxCell id="LGczJItEcJPwWo0bh8cd-13" value="" style="endArrow=none;html=1;rounded=0;" edge="1" parent="LGczJItEcJPwWo0bh8cd-1" target="LGczJItEcJPwWo0bh8cd-2">
          <mxGeometry width="50" height="50" relative="1" as="geometry">
            <mxPoint x="-80" y="130" as="sourcePoint" />
            <mxPoint x="150" y="260" as="targetPoint" />
            <Array as="points">
              <mxPoint x="-80" y="130" />
              <mxPoint x="-70" y="60" />
            </Array>
          </mxGeometry>
        </mxCell>
        <mxCell id="LGczJItEcJPwWo0bh8cd-18" value="" style="endArrow=none;html=1;rounded=0;" edge="1" parent="LGczJItEcJPwWo0bh8cd-1">
          <mxGeometry width="50" height="50" relative="1" as="geometry">
            <mxPoint x="300" y="130" as="sourcePoint" />
            <mxPoint x="210" y="80" as="targetPoint" />
            <Array as="points">
              <mxPoint x="300" y="120" />
              <mxPoint x="300" y="70" />
              <mxPoint x="210" y="80" />
            </Array>
          </mxGeometry>
        </mxCell>
        <mxCell id="LGczJItEcJPwWo0bh8cd-19" value="perpus digital" style="text;html=1;align=center;verticalAlign=middle;resizable=0;points=[];autosize=1;strokeColor=none;fillColor=none;" vertex="1" parent="LGczJItEcJPwWo0bh8cd-1">
          <mxGeometry x="75" width="90" height="30" as="geometry" />
        </mxCell>
        <mxCell id="LGczJItEcJPwWo0bh8cd-21" value="" style="endArrow=none;html=1;rounded=0;exitX=1.011;exitY=0.414;exitDx=0;exitDy=0;exitPerimeter=0;" edge="1" parent="LGczJItEcJPwWo0bh8cd-1" source="LGczJItEcJPwWo0bh8cd-3">
          <mxGeometry width="50" height="50" relative="1" as="geometry">
            <mxPoint x="200" y="174.5" as="sourcePoint" />
            <mxPoint x="310" y="169" as="targetPoint" />
            <Array as="points" />
          </mxGeometry>
        </mxCell>
        <mxCell id="LGczJItEcJPwWo0bh8cd-11" value="pustakawan" style="shape=umlActor;verticalLabelPosition=bottom;verticalAlign=top;html=1;outlineConnect=0;" vertex="1" parent="1">
          <mxGeometry x="600" y="230" width="60" height="120" as="geometry" />
        </mxCell>
        <mxCell id="LGczJItEcJPwWo0bh8cd-12" value="pengunjung" style="shape=umlActor;verticalLabelPosition=bottom;verticalAlign=top;html=1;outlineConnect=0;" vertex="1" parent="1">
          <mxGeometry x="150" y="220" width="60" height="120" as="geometry" />
        </mxCell>
        <mxCell id="LGczJItEcJPwWo0bh8cd-20" value="" style="endArrow=none;html=1;rounded=0;entryX=0;entryY=0.429;entryDx=0;entryDy=0;entryPerimeter=0;" edge="1" parent="1" source="LGczJItEcJPwWo0bh8cd-12" target="LGczJItEcJPwWo0bh8cd-3">
          <mxGeometry width="50" height="50" relative="1" as="geometry">
            <mxPoint x="390" y="370" as="sourcePoint" />
            <mxPoint x="440" y="320" as="targetPoint" />
          </mxGeometry>
        </mxCell>
        <mxCell id="LGczJItEcJPwWo0bh8cd-22" value="" style="endArrow=none;html=1;rounded=0;entryX=0.022;entryY=0.629;entryDx=0;entryDy=0;entryPerimeter=0;" edge="1" parent="1" target="LGczJItEcJPwWo0bh8cd-4">
          <mxGeometry width="50" height="50" relative="1" as="geometry">
            <mxPoint x="220" y="320" as="sourcePoint" />
            <mxPoint x="440" y="320" as="targetPoint" />
          </mxGeometry>
        </mxCell>
        <mxCell id="LGczJItEcJPwWo0bh8cd-23" value="" style="endArrow=none;html=1;rounded=0;exitX=1;exitY=0.5;exitDx=0;exitDy=0;" edge="1" parent="1" source="LGczJItEcJPwWo0bh8cd-4">
          <mxGeometry width="50" height="50" relative="1" as="geometry">
            <mxPoint x="390" y="370" as="sourcePoint" />
            <mxPoint x="580" y="330" as="targetPoint" />
          </mxGeometry>
        </mxCell>
        <mxCell id="LGczJItEcJPwWo0bh8cd-24" value="" style="endArrow=none;html=1;rounded=0;exitX=1;exitY=0.5;exitDx=0;exitDy=0;" edge="1" parent="1" source="LGczJItEcJPwWo0bh8cd-5">
          <mxGeometry width="50" height="50" relative="1" as="geometry">
            <mxPoint x="390" y="370" as="sourcePoint" />
            <mxPoint x="580" y="360" as="targetPoint" />
          </mxGeometry>
        </mxCell>
      </root>
    </mxGraphModel>
  </diagram>
</mxfile>
